<svg xmlns="http://www.w3.org/2000/svg" baseProfile="basic" viewBox="0 0 160 160"><path d="M103.2 117c12.7 8.2 34.5 15.5 14.8 27.5-18.4 11.2-39.2-.4-49.5-10.6-20.7-20.6-56.1-20.3-31.1-23.8 1.9-.3 15.8 0 29.6 2 14.3 2 32.4 2.4 36.2 4.9z" opacity=".2"/><path fill="#825012" d="M96.1 110.4s2 4.7 1.9 6.2-.8 3.5.1 4.3c.9.7 7.8 5.2 9.1 7.1 1.3 1.9 2 5.2 6.6 3s3.1-5.5.9-6.4c-2.1-.9-6.5-1.7-8.8-3.9-2.3-2.2-3.2-2.9-1.2-6.3s2.9-6.1 2.9-6.1l-11.5 2.1z"/><path d="M96.1 110.4s2 4.7 1.9 6.2-.8 3.5.1 4.3c.9.7 7.8 5.2 9.1 7.1 1.3 1.9 2 5.2 6.6 3s3.1-5.5.9-6.4c-2.1-.9-6.5-1.7-8.8-3.9-2.3-2.2-3.2-2.9-1.2-6.3s2.9-6.1 2.9-6.1l-11.5 2.1z" opacity=".2"/><path fill="#825012" d="M86.8 47.8c.8-1.5 2.6-3.6 5.5-5s5-1.9 5-1.9 1.7-3.1 5.5-1.8 7.5 8.5 8.4 11.6 2.2 8.7 1 9.4c-1.2.7-3-2.1-3-2.1s1 4.5 1.8 7.3c.7 2.8-.1 7.7.7 9.3.7 1.6 4.2 7.5 3.8 13.7s-2.8 12.2-2.9 14.8 3.4 16.8 4 17.9c.6 1.1.2 4.4 1.2 6.4s8.7 3.9 6.2 7.8c-2.4 3.9-9.3 2-10.3-.2s.1-4.6-1.1-8.8-6.7-15.8-6.7-15.8-2 .6-4.8.9c-2.9.4-5.9 3.9-4.9 9.7s2 8 2.6 9.4c.6 1.4.2 4.6 1.1 6.4.9 1.9 7.2 4.2 4.8 7.3-2.4 3.1-7.5 3.2-10.2.6s-.4-3.8-2.2-10.2c-1.9-6.4-4-13.8-4-13.8l-6.3 1.5-4.4 9.3s3.8 2.8 5.7 3.9c1.9 1.1 5.7.2 7 1.9 1.3 1.7 1.8 5.5-2.2 7s-6.3-3.4-7.7-4.5c-1.4-1-7-3.3-8.5-5s-.2-5.8-.2-5.8-5.9-.6-8.8-4.4-2.5-4.6-3.7-5.5c-1.2-.9-3.1-1.7-8.8-1.1-5.7.6-12.7-1.8-15.7-5.2-3.1-3.4-3.7-11.3-2.9-12 .8-.7 2.2 4.5 3.8 5.7s5.3 4.2 9.7 3.8c4.4-.4 12.5-3.6 12.5-3.6S62.4 93.9 68.6 87c6.2-7 14.6-11.7 15.9-16.8 1.1-5.1 1-19.9 2.3-22.4z"/><path d="M84.6 108.1s-1.2 1.6-4 1.6c-1.5 0-3.7-.2-5.3-.4.6.1 1.4.3 2.2.6 2.8.9 3.9 2.1 5.1 4.6 1.1 2.5-.8 7.7-.8 7.7l6.3-1.5s-.7-2.1-1-3.2c-.3-1-2.6-6.6-2.5-9.4zM94.9 65.4c-.4-1.5-1.8-5.1-4-7.5-1.6-1.8-3-5.8-3.6-8.3l-1.1.3c-.6 3.7-.8 10.7-1.3 15.8.9.7 4.2 1.9 5.3 2.5 4.7 2.6 5.5.5 4.7-2.8z" opacity=".2"/><path fill="#262626" d="M93.7 52.8s-.1-2.2.8-3.1c.8-.9 2.5-.6 1.7 1.3-.8 2-2.5 1.8-2.5 1.8zM102.9 45.7s-.2-1.1.7-1.5c.9-.3 1.8 1.5 1.8 1.5h-2.5zM111.1 53.4s-.3-.6-1-.8c-.6-.2-1.3-.1-2.1.2l-.9-1.8-.3.2.9 1.8c-1.3.7-1.9 1.5-2.6 2.5-.4.6-.9 1.3-1.6 1.9-1.8 1.8-2.8 2.1-2.8 2.1-.1 0-.1.1-.1.2s.1.1.2.1h.1s1.1-.4 3-2.2c.7-.7 1.2-1.4 1.6-2 .7-1 1.3-1.8 2.6-2.5.8-.4 1.4-.5 1.9-.3.6.2.8.6.8.6 0 .1.2.1.2.1.1.1.1 0 .1-.1z"/><path fill="#825012" d="M87.4 47.1c-.8-.5-2.7.7-4.1 3.4-1.4 2.7-3.4 7.5-1.8 9.9s4.3 4.5 6.7 5.4c2.3.9 5 2.6 5.7 2.1.7-.5-1.1-5.7-3-8.4s-4-5.8-4-5.8 2.5-5.3.5-6.6z"/><path d="M111.1 50.6c.7 1.7.5 3.5-.1 5.2-.6 1.6-1.7 2.3-1.7 2.3v.1c.3.5 1.8 2.7 2.9 2 1.2-.7-.1-6.3-1-9.4s-4.6-10.2-8.4-11.6c-3.5-1.2-5.2 1.3-5.5 1.7 1.6 0 4.4.4 5.9 1.9 1.6 1.5 2.6 2.4 3.6 3.8s3.5 2.2 4.3 4z" opacity=".2"/><path fill="#262626" d="M102.6 48.5c-.7 1.6 1.8 4 4.3 2.9 2.5-1.2 1.5-4 .7-4.6-.8-.7-4.2-.2-5 1.7zM112.2 69.8c-4.2.7-9.3 1.1-14.5.8C90 70.3 85.7 69 84 68c-.1.7-.2 1.4-.4 2-.2.6-.4 1.3-.8 1.9 4 2 10.5 2.6 14.7 2.7 1.1 0 2.2.1 3.3.1 3.7 0 7.7-.2 11.5-.9-.2-1-.1-2.5-.1-4z"/></svg>