<svg xmlns="http://www.w3.org/2000/svg" baseProfile="basic" viewBox="0 0 160 160"><path d="M63.6 114.3c-14.1 9.1-38.5 17.2-16.5 30.7 20.5 12.5 40.7-4.1 55.2-11.8 21.3-11.3 32.2-21.2 19.2-29.4-13.4-8.4-49.5 5.1-57.9 10.5z" opacity=".2"/><path fill="#825012" d="M88.4 90.5s8.9 2.3 8.9 4.9v7c0 2.2-4.6 3.8-4.6 6 0 2.9 5.7 4.7 7.3 4.3s2.5-1.2 2.5-4 1-14.5 1.4-18.1c.4-3.6-1.1-14.8-1.1-14.8L88.4 90.5z"/><path d="M88.4 90.5s8.9 2.3 8.9 4.9v7c0 2.2-4.6 3.8-4.6 6 0 2.9 5.7 4.7 7.3 4.3s2.5-1.2 2.5-4 1-14.5 1.4-18.1c.4-3.6-1.1-14.8-1.1-14.8L88.4 90.5z" opacity=".2"/><path fill="#825012" d="M21.6 54.3c1.6-.6 7.9-2.8 8-4s0-3.1 1.5-3.8 2.8-4.2 4.6-4.5c1.8-.4 2.8.1 6.3 1.2 3.5 1.1 7.7 3.4 10.4 5.3 2.8 2 4.1 4 5.9 6.7s2.4 3.5 2.1 4.2c-.3.7-.8.3-.4 1.5.6 1.6.9 3.7 3 4.3 7.1 1.9 23.5-9.6 27.8-10.9 10.1-3.3 19.9 1.8 25 6 3.3 2.7 6.5 10.1 8.9 14.9 2.4 4.8 6.7 5.4 6.3 7.5-.2.9-1.5 1.5-4.1.5-3.3-1.3-10.5-9.4-10.5-9.4s1 3-.5 7-3.8 10.5-1.7 12.7c2 2.1 4.6 4.5 4.9 6.7.3 2.2 1.2 18.2 1.2 19 0 .8-.5 2.3-2 2.8-4.5 1.5-10.1-1.7-9.3-4.5.8-2.8 4-2.1 4-6.3 0-1.5-.4-6-.7-6.9-.4-1.2-1.7-2.4-3.3-3-1.4-.5-7.3-3.8-8.5-7.5s-1.7-7.9-3.7-8.2c-2-.6-8.8 10.6-14.5 14.4s-9.5 4.1-9.5 4.1-1.1 18.6-1.1 22.2 2.6 7.4 3 9.8c.4 2.5 1 6.8-2.1 8.8-3.7 2.4-8.4.2-9.5-1.1-1-1.3-1.2-3.7.4-5.2 1.5-1.5 3.3-2.7 2.8-3.4-.5-.7-2.5-4.1-2.9-6.2-.5-3.3-1-17.2-4.9-19.6-1.2-.7-4.1-1.1-4.9.1-.8 1.3-.7 8.7-.7 9.9 0 1.9 2.8 6 2.8 9.3 0 3.3-1.2 5.1-4.1 6.1-2.3.8-5.4.2-7.7-2.7-1.5-1.9-.3-4 1.2-4.9 1-.6 2.3-.8 2.4-2.1.1-1.3-1.8-3.2-1.8-5.6 0-2.4-1-12-1-13.2 0-3.9-6.4-7.6-8.8-15.6-1.2-3.9-.3-8.4-.6-11.7 0-2.2-.5-11.2-4.3-12-1.4-.3-7.6-.2-9.3-2.1-1.3-1.4-2.1-3.3-1.7-5.5.4-2.3 1.6-5.1 1.6-5.1z"/><path fill="#262626" d="M41.3 56.5s-.7-1.9-2.4-2.9c-1.6-.9-3.2.9-1.2 2.4 1.8 1.4 3.6.5 3.6.5zM25.7 57.1c.2-1.8-1-2.7-3.3-3.2-1.4-.3-3 .5-3 2.3 0 2.5 2.1 4.4 2.1 4.4s3.8 0 4.2-3.5zM29.8 48.5s1.2.6.3 1.5c-.8 1.1-.3-1.5-.3-1.5zM34.6 73.3s2.8 1.6 7.3 1.6 8.4-1.8 10.6-3.9c2.2-2.1 8.1-8.5 8.1-8.5l2 2.1s-7 8.9-10 10.7c-3.1 1.8-6.3 3.4-10.8 3.3s-6.6-1.5-6.6-1.5l-.6-3.8z"/><path d="M46.7 54.8s-4.9 18.4.8 18.2c2.9-.1 12.3-13.1 12.3-13.1s-5.6 16.4-13.4 16.5c-7.7.1.3-21.6.3-21.6z" opacity=".2"/></svg>