<svg xmlns="http://www.w3.org/2000/svg" baseProfile="basic" viewBox="0 0 160 160"><path d="M50.2 144.4c17.4 10.5 30 3.9 49-4.4 21-9.2 32.5-23.8 22.2-29.9s-27.1-1.4-45 5.9c-16.6 6.7-37.3 21.7-26.2 28.4z" opacity=".2"/><path fill="#825012" d="M87.8 101.1c.6 2.7-.1 7.5-.6 9.2-.9 3.2-1 5.9.1 7 1.7 1.8 4.6 1.8 6.6 1.2s3.5-2.8 2.4-4.3c-1-1.6-2.8-1.8-2.8-1.8s.5-2.1 1-4.8c.6-3.1.3-7 .3-7l-7 .5zM67.8 103.4c-.8 4.2-3.2 9.2-5.9 12.8-2.7 3.5-4.2 5.4-4.8 7.5-.5 1.8-1.4 7.9-.7 8.5.7.6 2.8.4 3.5 3.5.4 1.9-3.1 3.7-5.6 3.4-2.6-.2-5.1-1.5-4.8-5.8s4.2-31.9 4.2-31.9l9.8-2.4 4.3 4.4z"/><path d="M87.8 101.1c.6 2.7-.1 7.5-.6 9.2-.9 3.2-1 5.9.1 7 1.7 1.8 4.6 1.8 6.6 1.2s3.5-2.8 2.4-4.3c-1-1.6-2.8-1.8-2.8-1.8s.5-2.1 1-4.8c.6-3.1.3-7 .3-7l-7 .5zM67.8 103.4c-.8 4.2-3.2 9.2-5.9 12.8-2.7 3.5-4.2 5.4-4.8 7.5-.5 1.8-1.4 7.9-.7 8.5.7.6 2.8.4 3.5 3.5.4 1.9-3.1 3.7-5.6 3.4-2.6-.2-5.1-1.5-4.8-5.8s4.2-31.9 4.2-31.9l9.8-2.4 4.3 4.4z" opacity=".2"/><path fill="#825012" d="M126 39s4.6-3.9 5-8.5c.3-3.7-.1-6.3-1-7-.9-.7-3.2-1.3-5.7.1-2.4 1.4-3.6 2.3-4.3 2.1s-1.2-2.4-4-1.6c-2.8.9-4.7 1.7-6.1 1.6s-3-1.2-5.6 1.2-6.5 7.2-6.5 9.1 3.7 3.5 3.7 5.1c.1 1.6-2.6 9.4-8.3 16.9-5.9 7.6-7.9 10.5-16 13.2-8.1 2.8-16.7 5.9-20.7 12.7-4 6.8-3.8 11.3-4.3 14.9-1.3 9.2-4.7 18.2-10 26.2-1.5 2.3-2.6 6 2.1 2.3s8.1-10.1 8.8-11.7c.7-1.6 6.7-13.5 9.4-13 2.8.6 6.5 6.7 7 10.6s.1 9.5-1.2 12.3c-1.6 3.5-2.9 8.2-2.9 12.3s.7 7.2 2.4 8.7c2.4 2 6.7.9 8.1-.2 1.5-1.1 1.1-3.7-.7-4.7-1.2-.7-2.5-.9-2.8-1.8-.3-1 .1-5.9 2-9.3 1.7-2.9 7.5-12.1 9.9-19.1 2.4-7 2.6-8.8 2.6-8.8s7.7-.1 11.6-2.4c4.5-2.8 6.7-7.1 8.3-6.1s2.2 13.9 1.5 19.8c-.5 3.7-4.1 7.2-2.1 11 1.2 2.3 5.4 2.8 7.9 1.8 2.5-1 2.6-3.3 1.8-4.3s-3.2-1.7-3.2-2c0-.4 1.6-2.7 2.2-5.3 1.3-5.7 1.7-16.1 4.2-22.8 2.6-6.7 4.3-15.7 3.9-21.2-.5-5.4-2.8-5.7-2.4-11.8.4-6.1 2.5-10.7 2.5-10.7s1.4.1 2.2-.2c1.3-.6.7-9.4.7-9.4z"/><path fill="#262626" d="M125.9 23c1.6 0 4.5 1.6 5.1 3.5 1.8-1-.7-7.5-5.1-3.5zM125.2 29c.2 1.1-.3 3.4-.3 3.4s1-1.3 1-2.3-.7-1.1-.7-1.1z"/><path d="M102.8 37.5s-1.1.3-2.3.1c-1-.1-1.9-.7-2.6-1.2.4 1.7 3.6 3.2 3.7 4.7.6-1.9 1.2-3.6 1.2-3.6zM115.9 43.1c2.8 4.5 6.6 6.2 9.4 5.3.1 0-5-.5-9.4-5.3z" opacity=".2"/><path fill="#262626" d="M98.8 48s6 2.8 11.6 3.9C116.5 53 122 53 122 53l-.9 4s-3.7.7-11.3-.7c-6.2-1.1-13-4.1-13-4.1l2-4.2z"/></svg>